<mxfile host="app.diagrams.net" modified="2022-01-05T11:08:28.126Z" agent="5.0 (Macintosh; Intel Mac OS X 10_15_7) AppleWebKit/537.36 (KHTML, like Gecko) Chrome/96.0.4664.110 Safari/537.36" etag="FHxO9hw9Et5wrYWczryq" version="16.2.1" type="github">
  <diagram id="QJjx0-fPxzvcmYibJWj1" name="Page-1">
    <mxGraphModel dx="2066" dy="1129" grid="1" gridSize="10" guides="1" tooltips="1" connect="1" arrows="1" fold="1" page="1" pageScale="1" pageWidth="827" pageHeight="583" math="0" shadow="0">
      <root>
        <mxCell id="0" />
        <mxCell id="1" parent="0" />
        <mxCell id="4f-DMQIj-ya-iA7LCkDa-11" value="" style="shape=cube;whiteSpace=wrap;html=1;boundedLbl=1;backgroundOutline=1;darkOpacity=0.05;darkOpacity2=0.1;size=20;direction=east;flipH=1;fillColor=#dae8fc;strokeColor=#6c8ebf;" parent="1" vertex="1">
          <mxGeometry x="40.01" y="20" width="40" height="340" as="geometry" />
        </mxCell>
        <mxCell id="4f-DMQIj-ya-iA7LCkDa-12" value="" style="shape=cube;whiteSpace=wrap;html=1;boundedLbl=1;backgroundOutline=1;darkOpacity=0.05;darkOpacity2=0.1;size=20;direction=east;flipH=1;fillColor=#d5e8d4;strokeColor=#82b366;" parent="1" vertex="1">
          <mxGeometry x="70" y="100" width="36" height="180" as="geometry" />
        </mxCell>
        <mxCell id="4f-DMQIj-ya-iA7LCkDa-15" value="" style="shape=cube;whiteSpace=wrap;html=1;boundedLbl=1;backgroundOutline=1;darkOpacity=0.05;darkOpacity2=0.1;size=10;direction=east;flipH=1;fillColor=#d5e8d4;strokeColor=#82b366;" parent="1" vertex="1">
          <mxGeometry x="244.23000000000002" y="140" width="25" height="65" as="geometry" />
        </mxCell>
        <mxCell id="4f-DMQIj-ya-iA7LCkDa-23" value="" style="shape=cube;whiteSpace=wrap;html=1;boundedLbl=1;backgroundOutline=1;darkOpacity=0.05;darkOpacity2=0.1;size=7;direction=east;flipH=1;fillColor=#dae8fc;strokeColor=#6c8ebf;" parent="1" vertex="1">
          <mxGeometry x="579.71" y="392.94000000000005" width="30" height="20" as="geometry" />
        </mxCell>
        <mxCell id="4f-DMQIj-ya-iA7LCkDa-24" value="" style="shape=cube;whiteSpace=wrap;html=1;boundedLbl=1;backgroundOutline=1;darkOpacity=0.05;darkOpacity2=0.1;size=7;direction=east;flipH=1;fillColor=#d5e8d4;strokeColor=#82b366;" parent="1" vertex="1">
          <mxGeometry x="579.71" y="422.94000000000005" width="30" height="20" as="geometry" />
        </mxCell>
        <mxCell id="4f-DMQIj-ya-iA7LCkDa-26" value="" style="shape=cube;whiteSpace=wrap;html=1;boundedLbl=1;backgroundOutline=1;darkOpacity=0.05;darkOpacity2=0.1;size=7;direction=east;flipH=1;fillColor=#ffe6cc;strokeColor=#d79b00;" parent="1" vertex="1">
          <mxGeometry x="380.23" y="205" width="30" height="20" as="geometry" />
        </mxCell>
        <mxCell id="4f-DMQIj-ya-iA7LCkDa-39" value="n x m x c" style="text;html=1;strokeColor=none;fillColor=none;align=center;verticalAlign=middle;whiteSpace=wrap;rounded=0;" parent="1" vertex="1">
          <mxGeometry x="126.72999999999999" y="330" width="99" height="30" as="geometry" />
        </mxCell>
        <mxCell id="4f-DMQIj-ya-iA7LCkDa-50" value="Input Tensor" style="text;html=1;strokeColor=none;fillColor=none;align=left;verticalAlign=middle;whiteSpace=wrap;rounded=0;fontStyle=1" parent="1" vertex="1">
          <mxGeometry x="620.71" y="390" width="138" height="23.88" as="geometry" />
        </mxCell>
        <mxCell id="4f-DMQIj-ya-iA7LCkDa-51" value="LSTM Neurons" style="text;html=1;strokeColor=none;fillColor=none;align=left;verticalAlign=middle;whiteSpace=wrap;rounded=0;fontStyle=1" parent="1" vertex="1">
          <mxGeometry x="620.71" y="420" width="138" height="23.88" as="geometry" />
        </mxCell>
        <mxCell id="4f-DMQIj-ya-iA7LCkDa-52" value="Laten Space" style="text;html=1;strokeColor=none;fillColor=none;align=left;verticalAlign=middle;whiteSpace=wrap;rounded=0;fontStyle=1" parent="1" vertex="1">
          <mxGeometry x="620.71" y="451.06000000000006" width="138" height="23.88" as="geometry" />
        </mxCell>
        <mxCell id="q16qMvtAuAjUv3j_tnUs-1" value="" style="shape=cube;whiteSpace=wrap;html=1;boundedLbl=1;backgroundOutline=1;darkOpacity=0.05;darkOpacity2=0.1;size=20;direction=east;flipH=1;fillColor=#fff2cc;strokeColor=#d6b656;" parent="1" vertex="1">
          <mxGeometry x="750" y="120" width="40" height="210" as="geometry" />
        </mxCell>
        <mxCell id="q16qMvtAuAjUv3j_tnUs-4" value="" style="shape=cube;whiteSpace=wrap;html=1;boundedLbl=1;backgroundOutline=1;darkOpacity=0.05;darkOpacity2=0.1;size=10;direction=east;flipH=1;fillColor=#d5e8d4;strokeColor=#82b366;" parent="1" vertex="1">
          <mxGeometry x="431.44" y="182.5" width="25" height="65" as="geometry" />
        </mxCell>
        <mxCell id="q16qMvtAuAjUv3j_tnUs-5" value="" style="shape=cube;whiteSpace=wrap;html=1;boundedLbl=1;backgroundOutline=1;darkOpacity=0.05;darkOpacity2=0.1;size=20;direction=east;flipH=1;fillColor=#d5e8d4;strokeColor=#82b366;" parent="1" vertex="1">
          <mxGeometry x="488.44" y="155" width="36" height="120" as="geometry" />
        </mxCell>
        <mxCell id="q16qMvtAuAjUv3j_tnUs-6" value="" style="shape=cube;whiteSpace=wrap;html=1;boundedLbl=1;backgroundOutline=1;darkOpacity=0.05;darkOpacity2=0.1;size=7;direction=east;flipH=1;fillColor=#ffe6cc;strokeColor=#d79b00;" parent="1" vertex="1">
          <mxGeometry x="579.71" y="453" width="30" height="20" as="geometry" />
        </mxCell>
        <mxCell id="q16qMvtAuAjUv3j_tnUs-7" value="" style="shape=cube;whiteSpace=wrap;html=1;boundedLbl=1;backgroundOutline=1;darkOpacity=0.05;darkOpacity2=0.1;size=7;direction=east;flipH=1;fillColor=#fff2cc;strokeColor=#d6b656;" parent="1" vertex="1">
          <mxGeometry x="579.71" y="490.00000000000006" width="30" height="20" as="geometry" />
        </mxCell>
        <mxCell id="q16qMvtAuAjUv3j_tnUs-8" value="Reconstructed Tensor" style="text;html=1;strokeColor=none;fillColor=none;align=left;verticalAlign=middle;whiteSpace=wrap;rounded=0;fontStyle=1" parent="1" vertex="1">
          <mxGeometry x="620.71" y="486.12000000000006" width="138" height="23.88" as="geometry" />
        </mxCell>
        <mxCell id="q16qMvtAuAjUv3j_tnUs-13" value="" style="shape=trapezoid;perimeter=trapezoidPerimeter;whiteSpace=wrap;html=1;fixedSize=1;rotation=-90;dashed=1;dashPattern=1 1;fillColor=none;direction=west;size=38.41000000000008;" parent="1" vertex="1">
          <mxGeometry x="20.000000000000007" y="395.84" width="125.76" height="106.2" as="geometry" />
        </mxCell>
        <mxCell id="q16qMvtAuAjUv3j_tnUs-14" value="&lt;b&gt;Encoding lstm&amp;nbsp;&lt;/b&gt;" style="text;html=1;strokeColor=none;fillColor=none;align=center;verticalAlign=middle;whiteSpace=wrap;rounded=0;dashed=1;dashPattern=1 1;" parent="1" vertex="1">
          <mxGeometry x="406.47" y="412.03999999999996" width="116" height="20" as="geometry" />
        </mxCell>
        <mxCell id="q16qMvtAuAjUv3j_tnUs-15" value="&lt;b&gt;Decoding lstm&amp;nbsp;&lt;/b&gt;" style="text;html=1;strokeColor=none;fillColor=none;align=center;verticalAlign=middle;whiteSpace=wrap;rounded=0;dashed=1;dashPattern=1 1;" parent="1" vertex="1">
          <mxGeometry x="417.47" y="482.0400000000001" width="116" height="20" as="geometry" />
        </mxCell>
        <mxCell id="q16qMvtAuAjUv3j_tnUs-16" value="" style="shape=trapezoid;perimeter=trapezoidPerimeter;whiteSpace=wrap;html=1;fixedSize=1;dashed=1;dashPattern=1 1;fillColor=none;rotation=-90;" parent="1" vertex="1">
          <mxGeometry x="360" y="404.08000000000004" width="57.47" height="35.92" as="geometry" />
        </mxCell>
        <mxCell id="q16qMvtAuAjUv3j_tnUs-17" value="" style="shape=trapezoid;perimeter=trapezoidPerimeter;whiteSpace=wrap;html=1;fixedSize=1;rotation=90;dashed=1;dashPattern=1 1;fillColor=none;direction=west;size=38.41000000000008;" parent="1" vertex="1">
          <mxGeometry x="95.16999999999996" y="420" width="124.84" height="126.21" as="geometry" />
        </mxCell>
        <mxCell id="q16qMvtAuAjUv3j_tnUs-19" value="" style="shape=trapezoid;perimeter=trapezoidPerimeter;whiteSpace=wrap;html=1;fixedSize=1;dashed=1;dashPattern=1 1;fillColor=none;rotation=-90;direction=west;" parent="1" vertex="1">
          <mxGeometry x="360" y="474.08000000000004" width="57.47" height="35.92" as="geometry" />
        </mxCell>
        <mxCell id="q16qMvtAuAjUv3j_tnUs-20" value="n x m x c" style="text;html=1;strokeColor=none;fillColor=none;align=center;verticalAlign=middle;whiteSpace=wrap;rounded=0;" parent="1" vertex="1">
          <mxGeometry x="551.73" y="330" width="99" height="30" as="geometry" />
        </mxCell>
        <mxCell id="q16qMvtAuAjUv3j_tnUs-21" value="n1 x m x c" style="text;html=1;strokeColor=none;fillColor=none;align=center;verticalAlign=middle;whiteSpace=wrap;rounded=0;dashed=1;dashPattern=1 1;" parent="1" vertex="1">
          <mxGeometry x="216.73" y="300" width="80" height="20" as="geometry" />
        </mxCell>
        <mxCell id="q16qMvtAuAjUv3j_tnUs-22" value="n2&amp;nbsp;x m x c" style="text;html=1;strokeColor=none;fillColor=none;align=center;verticalAlign=middle;whiteSpace=wrap;rounded=0;dashed=1;dashPattern=1 1;" parent="1" vertex="1">
          <mxGeometry x="318.73" y="320" width="80" height="20" as="geometry" />
        </mxCell>
        <mxCell id="q16qMvtAuAjUv3j_tnUs-23" value="n2&amp;nbsp;x m x c" style="text;html=1;strokeColor=none;fillColor=none;align=center;verticalAlign=middle;whiteSpace=wrap;rounded=0;dashed=1;dashPattern=1 1;" parent="1" vertex="1">
          <mxGeometry x="403.94" y="320" width="80" height="20" as="geometry" />
        </mxCell>
        <mxCell id="q16qMvtAuAjUv3j_tnUs-24" value="n1 x m x c" style="text;html=1;strokeColor=none;fillColor=none;align=center;verticalAlign=middle;whiteSpace=wrap;rounded=0;dashed=1;dashPattern=1 1;" parent="1" vertex="1">
          <mxGeometry x="488.44" y="300" width="80" height="20" as="geometry" />
        </mxCell>
        <mxCell id="q16qMvtAuAjUv3j_tnUs-25" value="n = Number of windows&amp;nbsp;" style="text;html=1;strokeColor=none;fillColor=none;align=center;verticalAlign=middle;whiteSpace=wrap;rounded=0;dashed=1;dashPattern=1 1;" parent="1" vertex="1">
          <mxGeometry x="68" y="410" width="156.51" height="20" as="geometry" />
        </mxCell>
        <mxCell id="q16qMvtAuAjUv3j_tnUs-26" value="m = window size&amp;nbsp;&amp;nbsp;" style="text;html=1;strokeColor=none;fillColor=none;align=left;verticalAlign=middle;whiteSpace=wrap;rounded=0;dashed=1;dashPattern=1 1;" parent="1" vertex="1">
          <mxGeometry x="80.00999999999999" y="430" width="140" height="20" as="geometry" />
        </mxCell>
        <mxCell id="q16qMvtAuAjUv3j_tnUs-27" value="c = Number of channels (features)&amp;nbsp;" style="text;html=1;strokeColor=none;fillColor=none;align=left;verticalAlign=middle;whiteSpace=wrap;rounded=0;dashed=1;dashPattern=1 1;" parent="1" vertex="1">
          <mxGeometry x="80.00999999999999" y="450" width="211" height="20" as="geometry" />
        </mxCell>
        <mxCell id="q16qMvtAuAjUv3j_tnUs-28" value="n1 = Neuron&#39;s number of layer 1 and 4&amp;nbsp;" style="text;html=1;strokeColor=none;fillColor=none;align=left;verticalAlign=middle;whiteSpace=wrap;rounded=0;dashed=1;dashPattern=1 1;" parent="1" vertex="1">
          <mxGeometry x="80.00999999999999" y="471.06" width="221" height="20" as="geometry" />
        </mxCell>
        <mxCell id="q16qMvtAuAjUv3j_tnUs-29" value="n2 = Neuron&#39;s number of layer 2 and 3&amp;nbsp;" style="text;html=1;strokeColor=none;fillColor=none;align=left;verticalAlign=middle;whiteSpace=wrap;rounded=0;dashed=1;dashPattern=1 1;" parent="1" vertex="1">
          <mxGeometry x="80.00999999999999" y="498.16" width="221" height="20" as="geometry" />
        </mxCell>
      </root>
    </mxGraphModel>
  </diagram>
</mxfile>
